<?xml version="1.0" encoding="utf-8"?>
<!-- Generator: Adobe Illustrator 24.1.0, SVG Export Plug-In . SVG Version: 6.00 Build 0)  -->
<svg version="1.1" id="Calque_1" xmlns="http://www.w3.org/2000/svg" xmlns:xlink="http://www.w3.org/1999/xlink" x="0px" y="0px"
	 viewBox="0 0 284 116.3" style="enable-background:new 0 0 284 116.3;" xml:space="preserve">
<style type="text/css">
	.st0{enable-background:new    ;}
</style>
<g>
	<g class="st0">
		<path d="M36.9,20.9c2.3,1.7,3.6,4.8,4.1,9h-5.2c-0.3-2-1-3.6-2.2-4.9c-1.1-1.3-2.9-2-5.5-2c-3.4,0-5.9,1.7-7.3,5
			c-1,2.2-1.4,4.8-1.4,8c0,3.2,0.7,5.9,2,8.1c1.4,2.2,3.5,3.3,6.4,3.3c2.2,0,4-0.7,5.3-2c1.3-1.4,2.2-3.2,2.7-5.6H41
			c-0.6,4.2-2.1,7.3-4.5,9.3c-2.4,2-5.4,2.9-9.1,2.9c-4.2,0-7.5-1.5-10-4.6c-2.5-3-3.7-6.9-3.7-11.4c0-5.6,1.4-10,4.1-13.1
			c2.7-3.1,6.2-4.7,10.4-4.7C31.7,18.2,34.7,19.1,36.9,20.9z"/>
		<path d="M66.1,20c2.1,1.1,3.7,2.4,4.8,4.1c1.1,1.6,1.8,3.5,2.1,5.6c0.3,1.5,0.5,3.8,0.5,7H50.3c0.1,3.2,0.9,5.8,2.3,7.8
			s3.6,2.9,6.6,2.9c2.8,0,5-0.9,6.6-2.8c0.9-1.1,1.6-2.3,2-3.7H73c-0.1,1.2-0.6,2.5-1.4,3.9c-0.8,1.4-1.7,2.6-2.6,3.5
			c-1.6,1.6-3.6,2.7-6,3.2c-1.3,0.3-2.7,0.5-4.3,0.5c-3.9,0-7.3-1.4-10-4.3c-2.7-2.9-4.1-6.9-4.1-12.1c0-5.1,1.4-9.3,4.1-12.5
			c2.8-3.2,6.4-4.8,10.8-4.8C61.8,18.4,63.9,19,66.1,20z M68,32.6c-0.2-2.3-0.7-4.2-1.5-5.6c-1.5-2.6-3.9-3.9-7.3-3.9
			c-2.4,0-4.5,0.9-6.1,2.7c-1.7,1.8-2.5,4-2.6,6.8H68z"/>
		<path d="M80.4,7.3h5.4v43.8h-5.4V7.3z"/>
		<path d="M113.5,20c2.1,1.1,3.7,2.4,4.8,4.1c1.1,1.6,1.8,3.5,2.1,5.6c0.3,1.5,0.5,3.8,0.5,7H97.8c0.1,3.2,0.9,5.8,2.3,7.8
			s3.6,2.9,6.6,2.9c2.8,0,5-0.9,6.6-2.8c0.9-1.1,1.6-2.3,2-3.7h5.3c-0.1,1.2-0.6,2.5-1.4,3.9c-0.8,1.4-1.7,2.6-2.6,3.5
			c-1.6,1.6-3.6,2.7-6,3.2c-1.3,0.3-2.7,0.5-4.3,0.5c-3.9,0-7.3-1.4-10-4.3C93.4,45,92,40.9,92,35.7c0-5.1,1.4-9.3,4.1-12.5
			c2.8-3.2,6.4-4.8,10.8-4.8C109.2,18.4,111.4,19,113.5,20z M115.4,32.6c-0.2-2.3-0.7-4.2-1.5-5.6c-1.5-2.6-3.9-3.9-7.3-3.9
			c-2.4,0-4.5,0.9-6.1,2.7c-1.7,1.8-2.5,4-2.6,6.8H115.4z"/>
		<path d="M130.9,41c0.2,1.8,0.6,3.2,1.4,4.1c1.4,1.7,3.8,2.6,7.2,2.6c2,0,3.8-0.4,5.4-1.3c1.5-0.9,2.3-2.2,2.3-4
			c0-1.4-0.6-2.4-1.8-3.1c-0.8-0.4-2.3-0.9-4.7-1.5l-4.3-1.1c-2.8-0.7-4.8-1.4-6.1-2.3c-2.3-1.5-3.5-3.5-3.5-6c0-3,1.1-5.5,3.3-7.3
			c2.2-1.9,5.2-2.8,8.9-2.8c4.9,0,8.4,1.4,10.5,4.2c1.3,1.8,2,3.7,2,5.8h-5.1c-0.1-1.2-0.5-2.3-1.3-3.3c-1.3-1.4-3.4-2.1-6.6-2.1
			c-2.1,0-3.6,0.4-4.7,1.2c-1.1,0.8-1.6,1.8-1.6,3.1c0,1.4,0.7,2.5,2.1,3.3c0.8,0.5,2,0.9,3.6,1.3l3.6,0.9c3.9,0.9,6.6,1.8,7.9,2.7
			c2.1,1.4,3.1,3.5,3.1,6.5c0,2.8-1.1,5.3-3.3,7.4c-2.2,2.1-5.5,3.1-10,3.1c-4.8,0-8.2-1.1-10.2-3.2c-2-2.2-3.1-4.8-3.2-8H130.9z"/>
		<path d="M159.3,10.3h5.4v8.9h5.1v4.4h-5.1v20.8c0,1.1,0.4,1.9,1.1,2.2c0.4,0.2,1.1,0.3,2.1,0.3c0.3,0,0.5,0,0.8,0
			c0.3,0,0.6,0,1-0.1v4.3c-0.6,0.2-1.3,0.3-1.9,0.4c-0.7,0.1-1.4,0.1-2.2,0.1c-2.5,0-4.2-0.6-5.1-1.9c-0.9-1.3-1.3-2.9-1.3-5V23.5
			H155v-4.4h4.3V10.3z"/>
		<path d="M194.9,20c2.1,1.1,3.7,2.4,4.8,4.1c1.1,1.6,1.8,3.5,2.1,5.6c0.3,1.5,0.5,3.8,0.5,7h-23.2c0.1,3.2,0.9,5.8,2.3,7.8
			c1.4,2,3.6,2.9,6.6,2.9c2.8,0,5-0.9,6.6-2.8c0.9-1.1,1.6-2.3,2-3.7h5.3c-0.1,1.2-0.6,2.5-1.4,3.9c-0.8,1.4-1.7,2.6-2.6,3.5
			c-1.6,1.6-3.6,2.7-6,3.2c-1.3,0.3-2.7,0.5-4.3,0.5c-3.9,0-7.3-1.4-10-4.3c-2.7-2.9-4.1-6.9-4.1-12.1c0-5.1,1.4-9.3,4.1-12.5
			s6.4-4.8,10.8-4.8C190.6,18.4,192.8,19,194.9,20z M196.8,32.6c-0.2-2.3-0.7-4.2-1.5-5.6c-1.5-2.6-3.9-3.9-7.3-3.9
			c-2.4,0-4.5,0.9-6.1,2.7c-1.7,1.8-2.5,4-2.6,6.8H196.8z"/>
		<path d="M210.2,10.3h5.4v8.9h5.1v4.4h-5.1v20.8c0,1.1,0.4,1.9,1.1,2.2c0.4,0.2,1.1,0.3,2.1,0.3c0.3,0,0.5,0,0.8,0
			c0.3,0,0.6,0,1-0.1v4.3c-0.6,0.2-1.3,0.3-1.9,0.4c-0.7,0.1-1.4,0.1-2.2,0.1c-2.5,0-4.2-0.6-5.1-1.9c-0.9-1.3-1.3-2.9-1.3-5V23.5
			h-4.3v-4.4h4.3V10.3z"/>
		<path d="M226.1,7.3h5.5v6.1h-5.5V7.3z M226.1,19.3h5.5v31.8h-5.5V19.3z"/>
		<path d="M260.7,20.9c2.3,1.7,3.6,4.8,4.1,9h-5.2c-0.3-2-1-3.6-2.2-4.9c-1.1-1.3-2.9-2-5.5-2c-3.4,0-5.9,1.7-7.3,5
			c-1,2.2-1.4,4.8-1.4,8c0,3.2,0.7,5.9,2,8.1c1.3,2.2,3.5,3.3,6.4,3.3c2.2,0,4-0.7,5.3-2c1.3-1.4,2.2-3.2,2.7-5.6h5.2
			c-0.6,4.2-2.1,7.3-4.5,9.3c-2.4,2-5.4,2.9-9.1,2.9c-4.2,0-7.5-1.5-10-4.6s-3.7-6.9-3.7-11.4c0-5.6,1.4-10,4.1-13.1
			c2.7-3.1,6.2-4.7,10.4-4.7C255.5,18.2,258.4,19.1,260.7,20.9z"/>
		<path d="M271.4,44.6h6.2v6.5h-6.2V44.6z"/>
	</g>
	<g class="st0">
		<path d="M54.5,66h6.7c1.3,0,2.4,0.4,3.2,1.1c0.8,0.8,1.2,1.8,1.2,3.2c0,1.2-0.4,2.2-1.1,3.1c-0.7,0.9-1.9,1.3-3.4,1.3h-4.7v6.4h-2
			V66z M62.4,68.1c-0.4-0.2-1.1-0.3-1.8-0.3h-4V73h4c0.9,0,1.6-0.2,2.2-0.6s0.9-1.1,0.9-2.1C63.6,69.2,63.2,68.5,62.4,68.1z"/>
		<path d="M68.6,66h6.8c1.1,0,2.1,0.2,2.8,0.5c1.4,0.6,2.1,1.8,2.1,3.6c0,0.9-0.2,1.6-0.6,2.2s-0.9,1-1.6,1.4c0.6,0.2,1,0.6,1.3,0.9
			c0.3,0.4,0.5,1,0.5,1.9l0.1,2c0,0.6,0.1,1,0.1,1.3c0.1,0.5,0.3,0.8,0.7,0.9v0.3h-2.5c-0.1-0.1-0.1-0.3-0.2-0.5s-0.1-0.6-0.1-1.2
			L78,76.9c0-1-0.4-1.6-1.1-2c-0.4-0.2-1-0.3-1.8-0.3h-4.5v6.5h-2V66z M75.2,72.9c0.9,0,1.7-0.2,2.2-0.6c0.5-0.4,0.8-1.1,0.8-2.1
			c0-1.1-0.4-1.8-1.1-2.2c-0.4-0.2-0.9-0.3-1.6-0.3h-4.8v5.1H75.2z"/>
		<path d="M95.9,68.1c1,1.3,1.5,3,1.5,5.1c0,2.2-0.6,4.1-1.7,5.6c-1.3,1.8-3.3,2.6-5.7,2.6c-2.3,0-4.1-0.8-5.5-2.3
			c-1.2-1.5-1.8-3.3-1.8-5.6c0-2,0.5-3.8,1.5-5.2c1.3-1.9,3.2-2.8,5.8-2.8C92.6,65.6,94.6,66.4,95.9,68.1z M94.1,77.7
			c0.8-1.3,1.2-2.8,1.2-4.4c0-1.8-0.5-3.2-1.4-4.3c-0.9-1.1-2.2-1.6-3.8-1.6c-1.6,0-2.8,0.5-3.8,1.6c-1,1.1-1.5,2.6-1.5,4.7
			c0,1.7,0.4,3.1,1.3,4.2c0.8,1.1,2.2,1.7,4.1,1.7C92,79.7,93.3,79,94.1,77.7z"/>
		<path d="M100,66h10.4v1.8h-8.4v4.6h7.4v1.8h-7.4v6.8h-2V66z"/>
		<path d="M112.8,66h10.9v1.8h-8.9v4.6h8.3v1.7h-8.3v5.1h9.1v1.8h-11.1V66z"/>
		<path d="M128,76.2c0,0.9,0.2,1.5,0.6,2.1c0.7,1,1.8,1.5,3.4,1.5c0.7,0,1.4-0.1,2-0.3c1.2-0.4,1.8-1.2,1.8-2.3
			c0-0.8-0.2-1.4-0.7-1.8c-0.5-0.3-1.3-0.6-2.4-0.9l-2-0.5c-1.3-0.3-2.2-0.6-2.7-1c-0.9-0.6-1.4-1.6-1.4-2.8c0-1.4,0.5-2.5,1.4-3.3
			c0.9-0.9,2.2-1.3,3.9-1.3c1.5,0,2.8,0.4,3.9,1.1c1.1,0.8,1.6,2,1.6,3.7h-1.9c-0.1-0.8-0.3-1.4-0.6-1.9c-0.6-0.8-1.6-1.2-3-1.2
			c-1.2,0-2,0.3-2.5,0.8s-0.8,1.1-0.8,1.8c0,0.7,0.3,1.3,0.9,1.6c0.4,0.2,1.3,0.5,2.7,0.8l2,0.5c1,0.2,1.7,0.6,2.3,1
			c0.9,0.7,1.4,1.7,1.4,3.1c0,1.7-0.6,2.9-1.8,3.6c-1.2,0.7-2.6,1.1-4.1,1.1c-1.8,0-3.3-0.5-4.3-1.4c-1-1-1.5-2.2-1.5-3.9H128z"/>
		<path d="M142,76.2c0,0.9,0.2,1.5,0.6,2.1c0.7,1,1.8,1.5,3.4,1.5c0.7,0,1.4-0.1,2-0.3c1.2-0.4,1.8-1.2,1.8-2.3
			c0-0.8-0.2-1.4-0.7-1.8c-0.5-0.3-1.3-0.6-2.4-0.9l-2-0.5c-1.3-0.3-2.2-0.6-2.7-1c-0.9-0.6-1.4-1.6-1.4-2.8c0-1.4,0.5-2.5,1.4-3.3
			c0.9-0.9,2.2-1.3,3.9-1.3c1.5,0,2.8,0.4,3.9,1.1c1.1,0.8,1.6,2,1.6,3.7h-1.9c-0.1-0.8-0.3-1.4-0.6-1.9c-0.6-0.8-1.6-1.2-3-1.2
			c-1.2,0-2,0.3-2.5,0.8s-0.8,1.1-0.8,1.8c0,0.7,0.3,1.3,0.9,1.6c0.4,0.2,1.3,0.5,2.7,0.8l2,0.5c1,0.2,1.7,0.6,2.3,1
			c0.9,0.7,1.4,1.7,1.4,3.1c0,1.7-0.6,2.9-1.8,3.6c-1.2,0.7-2.6,1.1-4.1,1.1c-1.8,0-3.3-0.5-4.3-1.4c-1-1-1.5-2.2-1.5-3.9H142z"/>
		<path d="M155.1,66h2.1v15.1h-2.1V66z"/>
		<path d="M172.9,68.1c1,1.3,1.5,3,1.5,5.1c0,2.2-0.6,4.1-1.7,5.6c-1.3,1.8-3.3,2.6-5.7,2.6c-2.3,0-4.1-0.8-5.5-2.3
			c-1.2-1.5-1.8-3.3-1.8-5.6c0-2,0.5-3.8,1.5-5.2c1.3-1.9,3.2-2.8,5.8-2.8C169.7,65.6,171.6,66.4,172.9,68.1z M171.1,77.7
			c0.8-1.3,1.2-2.8,1.2-4.4c0-1.8-0.5-3.2-1.4-4.3c-0.9-1.1-2.2-1.6-3.8-1.6c-1.6,0-2.8,0.5-3.8,1.6c-1,1.1-1.5,2.6-1.5,4.7
			c0,1.7,0.4,3.1,1.3,4.2c0.8,1.1,2.2,1.7,4.1,1.7C169,79.7,170.3,79,171.1,77.7z"/>
		<path d="M176.8,66h2.4l7.5,12.2V66h1.9v15.1h-2.3l-7.6-12.2v12.2h-1.9V66z"/>
		<path d="M196.4,66h2.3l5.5,15.1h-2.2l-1.5-4.5h-6l-1.6,4.5h-2.1L196.4,66z M199.7,74.9l-2.3-6.7l-2.4,6.7H199.7z"/>
		<path d="M206,66h2v13.3h7.6v1.8H206V66z"/>
		<path d="M219,76.2c0,0.9,0.2,1.5,0.6,2.1c0.7,1,1.8,1.5,3.4,1.5c0.7,0,1.4-0.1,2-0.3c1.2-0.4,1.8-1.2,1.8-2.3
			c0-0.8-0.2-1.4-0.7-1.8c-0.5-0.3-1.3-0.6-2.4-0.9l-2-0.5c-1.3-0.3-2.2-0.6-2.7-1c-0.9-0.6-1.4-1.6-1.4-2.8c0-1.4,0.5-2.5,1.4-3.3
			c0.9-0.9,2.2-1.3,3.9-1.3c1.5,0,2.8,0.4,3.9,1.1c1.1,0.8,1.6,2,1.6,3.7h-1.9c-0.1-0.8-0.3-1.4-0.6-1.9c-0.6-0.8-1.6-1.2-3-1.2
			c-1.2,0-2,0.3-2.5,0.8s-0.8,1.1-0.8,1.8c0,0.7,0.3,1.3,0.9,1.6c0.4,0.2,1.3,0.5,2.7,0.8l2,0.5c1,0.2,1.7,0.6,2.3,1
			c0.9,0.7,1.4,1.7,1.4,3.1c0,1.7-0.6,2.9-1.8,3.6c-1.2,0.7-2.6,1.1-4.1,1.1c-1.8,0-3.3-0.5-4.3-1.4c-1-1-1.5-2.2-1.5-3.9H219z"/>
	</g>
</g>
</svg>
