<?xml version="1.0" encoding="utf-8"?>
<!-- Generator: Adobe Illustrator 24.1.0, SVG Export Plug-In . SVG Version: 6.00 Build 0)  -->
<svg version="1.1" id="Calque_1" xmlns="http://www.w3.org/2000/svg" xmlns:xlink="http://www.w3.org/1999/xlink" x="0px" y="0px"
	 viewBox="0 0 714.2 173.8" style="enable-background:new 0 0 714.2 173.8;" xml:space="preserve">
<style type="text/css">
	.st0{font-family:'BodoniSvtyTwoITCTT-Book';}
	.st1{font-size:155px;}
	.st2{fill:#D82F20;}
	.st3{fill:#BA2D22;}
	.st4{fill:#B92C23;}
	.st5{fill:#CA2E20;}
	.st6{fill:#A82B26;}
	.st7{fill:#F9EDEB;}
	.st8{fill:#FCF1F1;}
	.st9{fill:#E1AAA7;}
	.st10{fill:#E8C2C1;}
	.st11{fill:#D28988;}
	.st12{fill:#E9B9B7;}
	.st13{fill:#F9DDDE;}
	.st14{fill:#B9403B;}
	.st15{fill:#BB5153;}
	.st16{fill:#CC7975;}
	.st17{fill:#DB8884;}
	.st18{fill:#F5C4C8;}
	.st19{fill:#BF4E4A;}
	.st20{fill:#EED1CC;}
</style>
<g>
	<text transform="matrix(1 0 0 1 19 131.9049)" class="st0 st1">MAVEX </text>
	<g>
		<g>
			<path class="st2" d="M579.4,23.2c36.6,0,73.2,0,109.8,0c0,36.2,0,72.5,0,108.7c-36.6,0-73.2,0-109.8,0
				C579.4,95.6,579.4,59.4,579.4,23.2z M586.4,60.3c-0.2,0-0.4,0-0.5,0c-0.2,0-0.5,0-0.5,0.1c-0.1,0.3-0.1,0.7-0.1,1
				c0,10.1,0,20.2,0,30.3c-0.2,0.4-0.6,0.7-0.7,1.1c0,0.3,0.4,0.6,0.7,0.9c0.1,0.1,0.1,0.1,0.2,0.2c0.2,0.1,0.4,0.2,0.6,0.4
				c0.4,0.1,0.8,0.2,1.3,0.2c8.1,0,16.2,0,24.3,0c0.4,0,0.7,0,1.1,0c0.6,0,1.2,0,1.9,0c0.3,0.1,0.6,0.2,0.9,0.2
				c0.5,0,0.8,0.2,0.8,0.7c-0.3,0-0.5,0.1-0.8,0.1c-0.8,0-0.8,0.7-0.8,1.1c0,0.7,0.5,0.3,0.8,0.2c0.3,0,0.5,0.1,0.8,0.1
				c0,8.3,0,16.7,0,25c-0.3,0.3-0.9,0.7-0.8,0.9c0.4,0.9,0.9,1.7,1.4,2.5c0.1,0.2,0.3,0.4,0.4,0.6c0.4,0.1,0.7,0.4,1.1,0.4
				c9.1,0,18.1,0,27.2,0c1,0,2.1-0.2,3.1-0.4c0.2,0,0.4,0,0.6,0c0.6,0.6,1.2,0.6,1.9,0c0.1-0.1,0.1-0.1,0.2-0.2
				c0.2-0.5,0.4-1,0.6-1.5c0-0.2,0-0.5,0-0.7c0.7-0.3,1.1-0.6,0.5-1.3c-0.1-0.1,0-0.5,0.1-0.7c0.2-0.4-0.1-2.5-0.4-2.8
				c0,0-0.1,0-0.2-0.1c0-7.3,0-14.6,0-21.8c0.6-0.3,1.2-0.7,1.8-1c0-0.1-0.1-0.2-0.1-0.4c-0.5,0-1-0.1-1.5-0.1
				c-0.1-0.2-0.1-0.5-0.2-0.7c9.5,0,18.9,0,28.4,0c0.6,0,1.2,0,1.9,0c1.1-0.1,1.1-0.8,1.1-1.7c0-10.4,0-20.9,0-31.3
				c0-1.5-0.3-1.8-1.9-2.1c-0.5,0-1,0-1.5,0c-0.2-0.4-0.4-0.4-0.6,0c-0.9,0-1.9,0-2.8,0c-0.3-0.5-0.6-0.5-0.9,0
				c-7.2,0-14.4,0-21.6,0c-1.5,0-2-0.5-2.1-2c0-0.3,0-0.6,0-0.9c0-7.9,0-15.7,0-23.6c0.5-0.2,0.9-0.4,1.4-0.6
				c-0.2-0.9-0.9-0.7-1.4-0.9c0-0.1,0-0.2,0-0.4c0.2-0.4,0.6-0.8,0.7-1.2c0-0.3-0.6-0.5-0.9-0.8c-0.1,0-0.1,0-0.2,0
				c-0.2-0.2-0.4-0.4-0.6-0.6c-5.1,0-10.2,0-15.4,0c-5.8,0-11.6,0-17.4,0c-0.5,0-1-0.1-1.2,0.6c-0.7,0.4-0.8,0.8,0,1.6
				c0-0.5,0-1.1,0-1.6c0.1,0,0.2,0,0.3,0c0,0.2,0,0.4,0,0.5c0,0.2,0,0.4,0.1,0.6c0,0.3-0.1,0.6-0.1,0.9c-0.2,0.2-0.6,0.3-0.7,0.6
				c-0.1,0.4-0.2,0.9-0.2,1.4c0,7.4,0,14.9,0,22.3c-0.3-0.1-0.7-0.1-1-0.2c-0.4-0.1-0.8-0.3-1.2-0.4c-0.1,0.4-0.2,0.9-0.2,1.3
				c0.1,0.9,0.3,1,1.1,0.7c0.4-0.1,0.8,0,1.2,0c0,2.8,0.2,2.6-2.6,2.6c-0.3-0.4-0.4-0.9,0-1.3c0.1-0.2,0.1-0.7,0.1-0.7
				c-0.6-0.1-1.3-0.2-1.9-0.2c0.1,0.4,0,1,0.2,1.3c0.4,0.4,0.2,0.7,0,1.1c-0.1,0-0.2,0-0.4,0c-0.2,0-0.5,0-0.7,0c-7.3,0-14.7,0-22,0
				c0,0.1,0,0.1,0,0.2c0.4,0.2,0.7,0.4,1.1,0.6c-0.9,0-1.7,0.1-2.6,0.1c-0.2,0-0.4,0-0.6,0C586.7,60.4,586.6,60.3,586.4,60.3z
				 M587.2,59.7c0-0.1,0-0.2,0-0.3c-0.3,0-0.6,0-0.9,0.1c0,0.1,0,0.1,0,0.2C586.6,59.7,586.9,59.7,587.2,59.7z"/>
			<path class="st3" d="M616.3,95.5c0-0.5-0.3-0.7-0.8-0.7c-0.3,0-0.6-0.1-0.9-0.2c0.4,0,0.8-0.1,1.2-0.1c0.3,0,0.7-0.1,1-0.2
				c0.1,0,0.1-0.1,0.2-0.1c0,0,0.1,0,0.1,0l0.1,0c0,0.2-0.1,0.4-0.1,0.6c0,9,0,18,0,27c0,0.6,0.1,1.2,0.1,1.8c0,0.3,0,0.6,0,0.9
				l-0.1,0l0,0.1c0.1,0.1,0.1,0.2,0.2,0.3c0.2,0,0.4,0,0.6-0.1c0.1,0,0.2,0,0.3,0c0.6,0,1.1,0.1,1.7,0.1c8,0,16.1,0,24.1,0
				c0.4,0,0.9,0,1.3,0.1c0.4,0.2,0.8,0.4,1.2,0.6c0,0.1,0,0.2,0,0.3c-9.8,0-19.5,0-29.3,0c-0.1-0.2-0.3-0.4-0.4-0.6
				c0-0.3,0.1-0.7-0.1-0.8c-0.7-0.8-0.6-1.7-0.5-2.6c0-8.3,0-16.7,0-25C616.3,96.5,616.3,96,616.3,95.5z"/>
			<path class="st4" d="M651.8,31.1c0,0.1,0,0.2,0,0.4c0,0.5,0,1,0,1.5c0,7.9,0,15.7,0,23.6c0,0.3,0,0.6,0,0.9c0.1,1.5,0.6,2,2.1,2
				c7.2,0,14.4,0,21.6,0c0.3,0,0.6,0,0.9,0c0.9,0,1.9,0,2.8,0c0.2,0,0.4,0,0.6,0c0.5,0,1,0,1.5,0c0,0.2,0,0.5,0,0.7
				c0,0.1,0,0.1-0.1,0.2c-0.1,0-0.2,0-0.3,0c-0.2,0-0.4-0.1-0.6-0.1c-9.1,0-18.2,0-27.2,0c-0.3,0-0.6,0.1-0.9,0.1
				c-0.3-0.1-0.6-0.1-0.9-0.2c-0.1-0.7-0.2-1.5-0.2-2.2c0-9,0-18.1,0-27.1c0-0.4-0.1-0.7-0.1-1.1c0-0.2,0-0.5,0-0.7L651,29
				c0.2,0,0.3,0,0.5,0c0.1,0,0.1,0,0.2,0C651.7,29.7,651.8,30.4,651.8,31.1z"/>
			<path class="st3" d="M590,60.3c-0.4-0.2-0.7-0.4-1.1-0.6c0-0.1,0-0.1,0-0.2c7.3,0,14.7,0,22,0c0.2,0,0.5,0,0.7,0
				c0.1,0,0.2,0,0.4,0c0.6,0,1.1,0,1.7,0c2.8,0,2.6,0.2,2.6-2.6c0-0.5,0-1,0-1.5c0-7.4,0-14.9,0-22.3c0-0.5,0-0.9,0.2-1.4
				c0.1-0.2,0.4-0.4,0.7-0.6c0,8.6,0,17.1,0,25.7c0,0.8-0.1,1.5-0.1,2.3c-1,0.6-1,0.7-0.5,1.1c-1,0-2.1,0-3.1,0
				c-0.2-0.1-0.3-0.3-0.5-0.3c-0.9,0-1.7,0-2.6,0c-0.2,0-0.3,0.2-0.5,0.3c-0.2,0-0.4,0.1-0.6,0.1C602.9,60.3,596.5,60.3,590,60.3z"
				/>
			<path class="st5" d="M681.3,60.2c0-0.2,0-0.5,0-0.7c1.6,0.2,1.9,0.6,1.9,2.1c0,10.4,0,20.9,0,31.3c0,0.8,0,1.6-1.1,1.7
				c-0.1-0.2-0.1-0.3-0.2-0.5c0.1-0.1,0.2-0.2,0.3-0.4c0-0.1,0.1-0.2,0.1-0.3c0.4-0.3,0.4-0.5,0-0.8c-0.1,0-0.1,0-0.2,0
				c0-2.5,0-5,0-7.5c0-2.3,0-4.6,0-6.9c0-0.7,0-1.4,0-2.1c0-0.4,0-0.7,0-1.1c0-1.5,0-3,0-4.6c0-0.8,0.1-1.7,0.1-2.5
				c0-0.1-0.2-0.3-0.4-0.4l-0.1,0c0.1-0.2,0.3-0.3,0.3-0.5c0-1.2,0-2.3,0-3.5c0,0,0-0.1,0-0.1c0-0.1,0-0.1-0.1-0.2l0,0
				c0-0.9,0-1.7,0-2.6C682.4,60.1,681.6,60.4,681.3,60.2z M682.6,61.1L682.6,61.1L682.6,61.1L682.6,61.1z"/>
			<path class="st4" d="M651.8,96.8c0,7.3,0,14.6,0,21.8c0,1.6,0,3.2,0,4.9c0,0.2,0,0.5,0,0.7c-0.2,0-0.3,0-0.5,0
				c0-0.1-0.1-0.1-0.1-0.2c0-0.1,0-0.2,0-0.3c0-0.3,0-0.7-0.1-1c-0.1-0.3-0.2-0.5-0.2-0.8c0-8.9,0-17.8,0-26.7
				c0-0.3,0.1-0.5,0.2-0.8c0.2,0,0.4,0.1,0.6,0.1c0.1,0.2,0.1,0.5,0.2,0.7C652,95.8,651.9,96.3,651.8,96.8z"/>
			<path class="st6" d="M616.9,94.3c-0.3,0.1-0.7,0.1-1,0.2c-0.4,0-0.8,0.1-1.2,0.1c-0.6,0-1.2,0-1.9,0c-0.4,0-0.7,0-1.1,0
				c-8.1,0-16.2,0-24.3,0c-0.4,0-0.8-0.1-1.3-0.2c0.1-0.1,0.1-0.2,0.2-0.3c0.1,0,0.2,0,0.3,0c0.6,0,1.3,0,1.9,0
				c1.2-0.1,2.4-0.1,3.6-0.2c0.2,0,0.4,0,0.6,0c1.4,0,2.9,0,4.3,0c0.1,0,0.1,0.1,0.2,0.1c3,0,6,0,9,0c0.1,0,0.2-0.1,0.2-0.1
				c2.6,0,5.2,0.1,7.8,0.1c0.9,0,1.9,0.1,2.8,0.1C616.9,94.1,616.9,94.2,616.9,94.3z"/>
			<path class="st3" d="M617.3,29c-0.1,0-0.2,0-0.3,0c0,0,0,0,0,0c0.2-0.7,0.7-0.6,1.2-0.6c5.8,0,11.6,0,17.4,0c5.1,0,10.2,0,15.4,0
				c0,0.2,0,0.3,0.1,0.5c0,0-0.1,0.1-0.1,0.1c-3.4,0-6.8,0-10.2,0c-7.4,0-14.7,0-22.1,0C618.2,29,617.7,29,617.3,29z"/>
			<path class="st3" d="M585.3,91.8c0-10.1,0-20.2,0-30.3c0-0.3,0-0.7,0.1-1c0,0,0.3,0,0.5-0.1c0,0.3,0,0.7,0.1,1c0,0.2,0,0.4,0,0.7
				c0,10.2,0,20.3,0,30.5c0,0.3,0,0.6,0.1,0.9c0,0.2,0,0.4,0,0.6c-0.1,0-0.3,0-0.4,0c-0.1-0.1-0.1-0.1-0.2-0.2
				C585.3,93.1,585.3,92.4,585.3,91.8z"/>
			<path class="st7" d="M586,93.4c0-0.3-0.1-0.6-0.1-0.9c0-10.2,0-20.3,0-30.5c0-0.2,0-0.4,0-0.7c0.2-0.2,0.3-0.4,0.5-0.6
				c0.1-0.1,0.2-0.3,0.4-0.4c0.2,0,0.4,0,0.6,0c0,0.2,0,0.4,0,0.5c-1,0.1-0.9,0.8-0.9,1.5c0,9.6,0,19.1,0,28.7
				c0.1,0.9,0.2,1.7,0.4,2.6c-0.1,0-0.2,0-0.4,0C586.3,93.7,586.2,93.6,586,93.4z"/>
			<path class="st6" d="M651.8,94.6c-0.2,0-0.4-0.1-0.6-0.1c0,0,0-0.1,0-0.1l0.1,0c0-0.1,0.1-0.2,0.1-0.3c0-0.1,0-0.2,0-0.2
				c0.4,0,0.9,0,1.3,0c0.4,0,0.9,0,1.3,0c2.7,0,5.3,0,8,0c0.7,0,1.4,0,2.1,0c0.4,0,0.9,0,1.3,0c0.2,0,0.4,0.1,0.6,0.1
				c3.7,0,7.3,0,11,0c0.2,0,0.3-0.1,0.5-0.1c0.6,0,1.2,0,1.9,0c0.3,0.1,0.5,0.1,0.8,0.2c0,0.2,0,0.3,0,0.5
				C670.8,94.6,661.3,94.6,651.8,94.6z"/>
			<path class="st8" d="M617.1,59.1c0-0.8,0.1-1.5,0.1-2.3c0-8.6,0-17.1,0-25.7c0-0.3,0.1-0.6,0.1-0.9c0.1,0,0.3,0,0.4,0
				c0.1,0.4,0.1,0.7,0.2,1.1c0,4.1,0,8.1,0,12.2c0,5.2,0,10.5,0,15.7c0,0.4-0.3,0.7-0.4,1.1c0-0.1-0.1-0.3-0.1-0.4
				C617.2,59.6,617.2,59.3,617.1,59.1z"/>
			<path class="st8" d="M587.4,60.9c0-0.2,0-0.4,0-0.5c0.9,0,1.7-0.1,2.6-0.1c6.5,0,12.9,0,19.4,0c0.2,0,0.4-0.1,0.6-0.1
				c1.2,0,2.4,0,3.5,0c1,0,2.1,0,3.1,0c0.1,0,0.2,0.1,0.3,0.1c0.1,0.1,0.1,0.1,0.2,0.2c-0.4,0.2-0.8,0.4-1.1,0.4
				c-9.3,0-18.5,0-27.8,0C587.9,60.9,587.7,60.9,587.4,60.9z"/>
			<path class="st5" d="M617.3,125.9c9.8,0,19.5,0,29.3,0c0-0.1,0-0.2,0-0.3c-0.4-0.2-0.8-0.4-1.2-0.6c0.6-0.1,1.3-0.1,1.9-0.2
				c0.9,0,1.9,0,2.8,0c0.2,0.1,0.3,0.1,0.5,0.2c-0.1,0.1-0.3,0.2-0.4,0.2c-0.5,0.2-1.1,0.4-1.6,0.6c-1,0.1-2.1,0.4-3.1,0.4
				c-9.1,0-18.1,0-27.2,0C618,126.3,617.6,126.1,617.3,125.9z"/>
			<path class="st5" d="M613.7,59.4c-0.6,0-1.1,0-1.7,0c0.2-0.4,0.3-0.6,0-1.1c-0.2-0.3-0.2-0.8-0.2-1.3c0.6,0.1,1.3,0.1,1.9,0.2
				c0,0,0.1,0.5-0.1,0.7C613.4,58.6,613.4,59,613.7,59.4z"/>
			<path class="st5" d="M616.3,55.3c0,0.5,0,1,0,1.5c-0.4,0-0.9-0.2-1.2,0c-0.8,0.2-1.1,0.2-1.1-0.7c0-0.4,0.1-0.9,0.2-1.3
				c0.4,0.1,0.8,0.3,1.2,0.4C615.7,55.3,616,55.3,616.3,55.3z"/>
			<path class="st5" d="M651.8,123.5c0-1.6,0-3.2,0-4.9c0.1,0,0.1,0,0.2,0.1c0.3,0.3,0.6,2.4,0.4,2.8c-0.1,0.2-0.2,0.5-0.1,0.7
				C653,123,652.5,123.3,651.8,123.5z"/>
			<path class="st5" d="M616.3,95.5c0,0.5,0,1,0,1.5c-0.3,0-0.5-0.1-0.8-0.1c-0.3,0.1-0.8,0.4-0.8-0.2c0-0.4,0-1.1,0.8-1.1
				C615.8,95.6,616.1,95.5,616.3,95.5z"/>
			<path class="st5" d="M616.3,122c-0.1,0.9-0.2,1.8,0.5,2.6c0.1,0.1,0,0.5,0.1,0.8c-0.5-0.8-1-1.6-1.4-2.5
				C615.5,122.7,616.1,122.3,616.3,122z"/>
			<path class="st5" d="M651.8,96.8c0.1-0.5,0.1-1,0.2-1.5c0.5,0,1,0.1,1.5,0.1c0,0.1,0.1,0.2,0.1,0.4
				C653,96.1,652.4,96.5,651.8,96.8z"/>
			<path class="st5" d="M651.8,32.9c0-0.5,0-1,0-1.5c0.5,0.2,1.2,0,1.4,0.9C652.8,32.6,652.3,32.7,651.8,32.9z"/>
			<path class="st5" d="M651.8,31.1c-0.1-0.7-0.1-1.4-0.2-2.1c0.3,0.3,0.9,0.6,0.9,0.8C652.5,30.3,652.1,30.7,651.8,31.1z"/>
			<path class="st5" d="M585.3,91.8c0,0.7,0,1.4,0,2.1c-0.2-0.3-0.7-0.6-0.7-0.9C584.7,92.5,585.1,92.1,585.3,91.8z"/>
			<path class="st3" d="M648.7,125.9c0.5-0.2,1.1-0.4,1.6-0.6c0.3,0,0.7,0,1,0c0,0.1,0,0.3,0,0.4c-0.1,0.1-0.1,0.1-0.2,0.2
				c-0.6,0-1.2,0-1.9,0C649,125.9,648.8,125.9,648.7,125.9z"/>
			<path class="st3" d="M680.2,94.5c0-0.2,0-0.3,0-0.5c0.5,0,1,0,1.5,0c0.1,0,0.1,0.1,0.2,0.1c0.1,0.2,0.1,0.3,0.2,0.5
				C681.5,94.6,680.8,94.5,680.2,94.5z"/>
			<path class="st3" d="M616.9,29c0,0.5,0,1.1,0,1.6C616.1,29.8,616.2,29.4,616.9,29C616.9,29,616.9,29,616.9,29z"/>
			<path class="st5" d="M649.2,125.9c0.6,0,1.2,0,1.9,0C650.5,126.5,649.8,126.5,649.2,125.9z"/>
			<path class="st5" d="M651.3,125.7c0-0.1,0-0.3,0-0.4c0-0.2,0-0.4,0-0.5c0-0.1,0-0.3,0-0.4c0-0.1,0.1-0.1,0.1-0.2
				c0.2,0,0.3,0,0.5,0C651.6,124.8,651.5,125.2,651.3,125.7z"/>
			<path class="st9" d="M617.3,29c0.5,0,0.9,0,1.4,0.1c0,0.1,0,0.2,0,0.3c-0.2,0-0.5,0-0.7,0.1c-0.1,0-0.1,0.1-0.2,0.1
				c-0.2,0-0.3,0-0.5,0C617.2,29.4,617.2,29.2,617.3,29z"/>
			<path class="st3" d="M587.2,59.7c-0.3,0-0.6,0-0.9,0c0-0.1,0-0.1,0-0.2c0.3,0,0.6,0,0.9-0.1C587.2,59.6,587.2,59.7,587.2,59.7z"
				/>
			<path class="st9" d="M586.5,60.8c-0.2,0.2-0.3,0.4-0.5,0.6c0-0.3,0-0.7-0.1-1c0.2,0,0.4,0,0.5,0
				C586.5,60.5,586.5,60.6,586.5,60.8z"/>
			<path class="st3" d="M611.7,94.6c0.4,0,0.7,0,1.1,0C612.4,94.6,612.1,94.6,611.7,94.6z"/>
			<path class="st5" d="M676.5,59.4c-0.3,0-0.6,0-0.9,0C675.9,58.9,676.2,58.9,676.5,59.4z"/>
			<path class="st5" d="M585.5,94c0.1,0,0.3,0,0.4,0c0.1,0,0.2,0,0.3,0.1c-0.1,0.1-0.1,0.2-0.2,0.3C585.9,94.2,585.7,94.1,585.5,94z
				"/>
			<path class="st5" d="M611.7,59.5c-0.2,0-0.5,0-0.7,0C611.2,59.5,611.4,59.5,611.7,59.5z"/>
			<path class="st10" d="M617.2,29.5c0.2,0,0.3,0,0.5,0c0.1,0,0.1,0,0.2,0c-0.1,0.2-0.1,0.4-0.2,0.6c-0.1,0-0.3,0-0.4,0
				C617.3,29.9,617.2,29.7,617.2,29.5z"/>
			<path class="st5" d="M651,29c0-0.2,0-0.3-0.1-0.5c0.2,0.2,0.4,0.4,0.6,0.6C651.3,29,651.1,29,651,29z"/>
			<path class="st5" d="M679.9,59.4c-0.2,0-0.4,0-0.6,0C679.5,59,679.7,59,679.9,59.4z"/>
			<path class="st10" d="M586.5,60.8c0-0.1,0-0.3,0-0.4c0.1,0,0.3,0,0.4,0.1C586.7,60.5,586.6,60.6,586.5,60.8z"/>
			<path class="st8" d="M617.3,94.2c0.2,0.2,0.4,0.4,0.5,0.7c0.2,0.3,0.3,0.6,0.4,0.8c-0.6,0.7-0.6,1.6-0.4,2.4c0.1,0.3,0,0.7,0,1
				c0,8.2,0,16.4,0,24.5c-0.2,0-0.4,0-0.5,0c0-0.6-0.1-1.2-0.1-1.8c0-9,0-18,0-27C617.2,94.6,617.3,94.4,617.3,94.2z"/>
			<path class="st7" d="M617.3,123.7c0.2,0,0.4,0,0.5,0c0,0,0,0,0,0c0.1,0.4,0.1,0.8,0.2,1.3c-0.2,0-0.4,0-0.6,0.1
				c0,0,0.1-0.1,0.1-0.1c-0.1-0.1-0.2-0.2-0.2-0.2C617.3,124.3,617.3,124,617.3,123.7z"/>
			<path class="st8" d="M618.1,125c-0.1-0.4-0.1-0.8-0.2-1.3c0.2,0.4,0.4,0.8,0.5,1.2C618.3,124.9,618.2,124.9,618.1,125z"/>
			<path class="st11" d="M617.3,124.6c0.1,0.1,0.2,0.2,0.2,0.2c-0.1,0-0.2-0.1-0.3-0.1L617.3,124.6
				C617.2,124.7,617.3,124.6,617.3,124.6z"/>
			<path class="st12" d="M617.2,124.7c0.1,0,0.2,0.1,0.3,0.1c0,0.1,0,0.1-0.1,0.1C617.4,124.9,617.3,124.8,617.2,124.7z"/>
			<path class="st11" d="M616.9,94c0.1,0,0.1,0.1,0.2,0.1c-0.1,0-0.1,0.1-0.2,0.1C616.9,94.2,616.9,94.1,616.9,94z"/>
			<path class="st7" d="M650.9,29.8c-0.3-0.1-0.6-0.1-1-0.2c-10,0-20.1,0-30.1,0c-0.4,0-0.8-0.1-1.3-0.2c0-0.1,0-0.2,0-0.3
				c7.4,0,14.7,0,22.1,0c3.4,0,6.8,0,10.2,0C650.9,29.3,650.9,29.5,650.9,29.8z"/>
			<path class="st8" d="M681,60.8c-0.4,0.1-0.8,0.2-1.3,0.2c-8.4,0-16.8,0-25.2,0c-0.7,0-1.3,0.2-2,0.3c-0.4,0-0.8-0.1-1.2-0.1
				c0-0.1,0-0.2,0-0.3c0.3-0.1,0.5-0.2,0.8-0.3c0.3,0,0.6-0.1,0.9-0.1c9.1,0,18.2,0,27.2,0c0.2,0,0.4,0,0.6,0.1
				C681,60.5,681,60.6,681,60.8z"/>
			<path class="st13" d="M682.2,60.9c-0.3,0-0.6-0.1-0.9-0.1c0-0.1,0-0.3,0-0.4c0-0.1,0-0.1,0.1-0.2
				C681.6,60.4,682.4,60.1,682.2,60.9z"/>
			<path class="st10" d="M681.3,60.4c0,0.1,0,0.3,0,0.4c-0.1,0-0.2,0-0.4,0c0-0.1,0-0.3,0-0.4C681.1,60.4,681.2,60.4,681.3,60.4z"/>
			<path class="st5" d="M613.5,60.2c-1.2,0-2.4,0-3.5,0c0.2-0.1,0.3-0.3,0.5-0.3c0.9,0,1.7,0,2.6,0
				C613.2,59.9,613.4,60.1,613.5,60.2z"/>
			<path class="st14" d="M616.9,60.3c-0.1,0-0.2-0.1-0.3-0.1c-0.6-0.5-0.5-0.6,0.5-1.1c0.1,0.2,0.1,0.5,0.2,0.7
				C617.2,60,617,60.1,616.9,60.3z"/>
			<path class="st7" d="M682.2,92.7c-0.1-0.3-0.2-0.5-0.3-0.8c-0.1-0.7-0.1-1.5-0.2-2.2c0.1-1.3,0.1-2.6,0.2-3.8
				c0-0.2,0.2-0.4,0.3-0.7C682.2,87.7,682.2,90.2,682.2,92.7z"/>
			<path class="st7" d="M682.2,75.1c-0.1-0.4-0.4-0.8-0.4-1.1c0-1.2,0.1-2.5,0.1-3.7c0.1,0.1,0.2,0.2,0.3,0.3
				C682.2,72.1,682.2,73.6,682.2,75.1z"/>
			<path class="st7" d="M682.2,78.3c0-0.7,0-1.4,0-2.1C682.2,76.9,682.2,77.6,682.2,78.3z"/>
			<path class="st13" d="M682.2,70.6c-0.1-0.1-0.2-0.2-0.3-0.3c0-0.6,0-1.3,0-1.9c0-0.2,0-0.4,0-0.7c0.1,0.1,0.4,0.3,0.4,0.4
				C682.3,68.9,682.2,69.8,682.2,70.6z"/>
			<path class="st14" d="M682.3,93.5c0-0.3,0-0.5,0-0.8C682.8,92.9,682.8,93.2,682.3,93.5z"/>
			<path class="st15" d="M681.9,93.6c0.1,0,0.2,0.1,0.3,0.1c-0.1,0.1-0.2,0.2-0.3,0.4c-0.1,0-0.1-0.1-0.2-0.1
				C681.8,93.9,681.9,93.7,681.9,93.6z"/>
			<path class="st9" d="M681.9,67.7c0,0.2,0,0.5,0,0.7C681.8,68.2,681.8,67.9,681.9,67.7C681.8,67.7,681.9,67.7,681.9,67.7z"/>
			<polygon class="st14" points="682.6,61.1 682.5,61.1 682.5,61.1 			"/>
			<path class="st13" d="M682.2,63.7c-0.1-0.1-0.1-0.2-0.2-0.3c0,0,0.1,0,0.1,0C682.2,63.5,682.2,63.6,682.2,63.7
				C682.2,63.7,682.2,63.7,682.2,63.7z"/>
			<path class="st9" d="M682.2,63.5c0,0-0.1,0-0.1,0C682.1,63.4,682.1,63.5,682.2,63.5C682.2,63.5,682.2,63.5,682.2,63.5z"/>
			<path class="st5" d="M651.1,123.9c0-0.4,0.1-0.8,0.1-1.1c0,0.3,0,0.7,0.1,1C651.2,123.8,651.1,123.9,651.1,123.9z"/>
			<path class="st16" d="M650.8,123.9c0.1,0,0.1,0.1,0.2,0.1c0.1,0,0.2,0,0.3,0.1c0,0.1,0.1,0.1,0.1,0.2c0,0.1-0.1,0.1-0.1,0.2
				c-0.1,0-0.2,0-0.3,0C650.9,124.3,650.9,124.1,650.8,123.9z"/>
			<path class="st17" d="M651.3,124.1c-0.1,0-0.2,0-0.3-0.1c0-0.1,0-0.1,0.1-0.1c0.1,0,0.1-0.1,0.2-0.1
				C651.3,123.9,651.3,124,651.3,124.1z"/>
			<path class="st13" d="M596.9,93.8c0.3-0.1,0.6-0.4,0.8-0.4c2.5,0,5,0,7.5,0c0.3,0,0.7,0.2,1,0.3c-0.1,0-0.2,0.1-0.2,0.1
				c-3,0-6,0-9,0C597,93.9,597,93.9,596.9,93.8z"/>
			<path class="st5" d="M586.8,93.8c0.6,0.1,1.1,0.1,1.7,0.2c-0.6,0-1.3,0-1.9,0c0-0.1-0.1-0.1-0.1-0.2
				C586.6,93.8,586.7,93.8,586.8,93.8z"/>
			<path class="st18" d="M586.5,93.8c0,0.1,0.1,0.1,0.1,0.2c-0.1,0-0.2,0-0.3,0c-0.1,0-0.2,0-0.3-0.1c0-0.2,0-0.4,0-0.6
				C586.2,93.6,586.3,93.7,586.5,93.8z"/>
			<path class="st13" d="M592.1,93.8c0.2,0,0.4,0,0.6,0C592.5,93.8,592.3,93.8,592.1,93.8z"/>
			<path class="st13" d="M665.5,93.8c0.3-0.1,0.6-0.2,0.9-0.2c3.5,0,6.9,0,10.4,0c0.3,0,0.6,0.1,0.9,0.2c-0.2,0-0.3,0.1-0.5,0.1
				c-3.7,0-7.3,0-11,0C665.9,93.9,665.7,93.9,665.5,93.8z"/>
			<path class="st13" d="M681.9,93.6c-0.1,0.1-0.1,0.3-0.2,0.4c-0.5,0-1,0-1.5,0c-0.3-0.1-0.5-0.1-0.8-0.2
				C680.3,93.8,681.1,93.7,681.9,93.6z"/>
			<path class="st18" d="M662.1,93.9c0.7,0,1.4,0,2.1,0C663.5,93.9,662.8,93.9,662.1,93.9z"/>
			<path class="st13" d="M652.8,93.8c0.4-0.6,0.9-0.5,1.3,0C653.6,93.8,653.2,93.8,652.8,93.8z"/>
			<path class="st4" d="M651.3,94.3c0-0.1,0.1-0.2,0.1-0.3C651.4,94.2,651.4,94.3,651.3,94.3z"/>
			<path class="st10" d="M616.9,60.3c0.1-0.2,0.2-0.3,0.3-0.5c0,0.1,0.1,0.3,0.1,0.4c-0.1,0.1-0.2,0.2-0.3,0.3
				C617,60.4,617,60.3,616.9,60.3z"/>
			<path class="st7" d="M650.2,124.9c0.1-0.5,0.1-1,0.2-1.4c0.2,0.1,0.3,0.3,0.5,0.4c0,0.2,0.1,0.4,0.1,0.6
				c-0.1,0.2-0.2,0.3-0.3,0.5c0,0-0.1,0.1,0,0.2C650.5,125.1,650.3,125,650.2,124.9z"/>
			<path class="st19" d="M651.3,124.8c0,0.2,0,0.4,0,0.5c-0.3,0-0.7,0-1,0c0.1-0.1,0.3-0.2,0.4-0.2c0-0.1,0-0.1,0-0.2
				C650.9,124.9,651.1,124.9,651.3,124.8z"/>
			<path class="st17" d="M651.3,124.8c-0.2,0.1-0.4,0.1-0.6,0.2c0.1-0.2,0.2-0.3,0.3-0.5c0.1,0,0.2,0,0.3,0
				C651.3,124.6,651.3,124.7,651.3,124.8z"/>
			<path class="st7" d="M617.9,29.4c0,0,0,0.1,0,0.1c-0.1,0-0.1,0-0.2,0C617.7,29.5,617.8,29.5,617.9,29.4z"/>
			<path class="st20" d="M650.8,60.2c0.1,0,0.3,0,0.4,0C651.1,60.2,651,60.2,650.8,60.2z"/>
			<path class="st13" d="M651.5,93.8c-0.2-0.1-0.4-0.1-0.6-0.2C651.1,93.7,651.3,93.7,651.5,93.8z"/>
		</g>
	</g>
</g>
</svg>
