<?xml version="1.0" encoding="utf-8"?>
<!-- Generator: Adobe Illustrator 24.1.0, SVG Export Plug-In . SVG Version: 6.00 Build 0)  -->
<svg version="1.1" id="Calque_1" xmlns="http://www.w3.org/2000/svg" xmlns:xlink="http://www.w3.org/1999/xlink" x="0px" y="0px"
	 viewBox="0 0 1920 1080" style="enable-background:new 0 0 1920 1080;" xml:space="preserve">
<style type="text/css">
	.st0{fill:#FFFFFF;}
</style>
<g id="email" transform="translate(-768.7 -348.8)">
	<path id="Tracé_1732" class="st0" d="M1725.93,842.25h5.82c1.57,0.22,3.17,0.36,4.75,0.63c19.45,3.32,34.73,18.48,38.18,37.91
		c0.29,1.7,0.48,3.42,0.7,5.11v5.82c-0.15,1.14-0.27,2.28-0.44,3.42c-2.81,20-18.15,35.92-38.03,39.48
		c-1.72,0.32-3.47,0.48-5.19,0.73h-5.82c-1.14-0.14-2.28-0.27-3.42-0.41c-19.99-2.8-35.92-18.13-39.48-38.01
		c-0.31-1.72-0.48-3.47-0.73-5.19v-5.82c0.19-1.55,0.36-3.13,0.63-4.65c3.28-19.48,18.46-34.79,37.91-38.25
		C1722.51,842.66,1724.21,842.47,1725.93,842.25z M1728.84,909.92h23.63c3.95,0,6.35-2.4,6.35-6.33v-29.72
		c0.24-3.21-2.17-6.01-5.39-6.25c-0.28-0.02-0.56-0.02-0.84,0h-47.53c-0.6-0.02-1.21,0.04-1.79,0.17c-2.7,0.66-4.56,3.14-4.44,5.91
		c0,9.91,0.07,19.8-0.05,29.72c-0.19,3.41,2.43,6.33,5.84,6.52c0.22,0.01,0.44,0.01,0.66,0
		C1713.13,909.85,1720.98,909.92,1728.84,909.92z"/>
	<path id="Tracé_1733" class="st0" d="M1703.7,874.92c1.87,1.48,3.59,2.84,5.31,4.22c6.01,4.77,12.01,9.54,18.01,14.3
		c0.94,0.99,2.5,1.03,3.49,0.1c0.03-0.03,0.07-0.06,0.1-0.1c7.34-5.84,14.7-11.67,22.06-17.5c0.36-0.29,0.75-0.58,1.26-0.99
		c0.02,0.44,0.07,0.73,0.07,0.99v27.44c0,1.53-0.22,1.74-1.72,1.74h-46.97c-1.36,0-1.62-0.27-1.62-1.58v-27.8
		C1703.66,875.47,1703.67,875.2,1703.7,874.92z"/>
	<path id="Tracé_1734" class="st0" d="M1708.48,872.48h40.72c-0.24,0.24-0.39,0.39-0.53,0.51l-19.2,15.27
		c-0.39,0.32-0.65,0.48-1.16,0.1c-6.47-5.19-12.99-10.33-19.49-15.49C1708.71,872.73,1708.6,872.6,1708.48,872.48z"/>
</g>
</svg>
